<svg xmlns="http://www.w3.org/2000/svg" width="1024" height="768" viewBox="0 0 1024 768">
<rect width="1024" height="768" fill="#000000"/>
<polyline fill="none" stroke="#FFFFFF" stroke-width="1" points="278,641 1012,641 1012,127 278,127 278,641"/>
<polyline fill="none" stroke="#FFFFFF" stroke-width="1" points="300,167 300,150"/>
<polyline fill="none" stroke="#FFFFFF" stroke-width="1" points="309,167 309,150"/>
<polyline fill="none" stroke="#FFFFFF" stroke-width="1" points="300,159 309,159"/>
<polyline fill="none" stroke="#FFFFFF" stroke-width="1" points="313,167 313,150 320,150 322,153 322,156 320,159 313,159"/>
<polyline fill="none" stroke="#FFFFFF" stroke-width="1" points="326,159 335,159"/>
<polyline fill="none" stroke="#FFFFFF" stroke-width="1" points="348,153 346,150 342,150 339,153 339,164 342,167 346,167 348,164 348,159 344,159"/>
<polyline fill="none" stroke="#FFFFFF" stroke-width="1" points="353,150 353,167 361,167"/>
<polyline fill="none" stroke="#FFFFFF" stroke-width="1" points="388,150 379,150 379,167"/>
<polyline fill="none" stroke="#FFFFFF" stroke-width="1" points="379,159 386,159"/>
<polyline fill="none" stroke="#FFFFFF" stroke-width="1" points="392,162 401,162 401,159 399,156 395,156 392,159 392,164 395,167 399,167 401,164"/>
<polyline fill="none" stroke="#FFFFFF" stroke-width="1" points="414,167 414,156"/>
<polyline fill="none" stroke="#FFFFFF" stroke-width="1" points="414,159 412,156 408,156 406,159 406,164 408,167 412,167 414,164"/>
<polyline fill="none" stroke="#FFFFFF" stroke-width="1" points="421,150 421,164 423,167 425,167"/>
<polyline fill="none" stroke="#FFFFFF" stroke-width="1" points="419,156 425,156"/>
<polyline fill="none" stroke="#FFFFFF" stroke-width="1" points="432,156 432,164 434,167 439,167 441,164"/>
<polyline fill="none" stroke="#FFFFFF" stroke-width="1" points="441,156 441,167"/>
<polyline fill="none" stroke="#FFFFFF" stroke-width="1" points="445,167 445,156"/>
<polyline fill="none" stroke="#FFFFFF" stroke-width="1" points="445,159 447,156 452,156 454,159"/>
<polyline fill="none" stroke="#FFFFFF" stroke-width="1" points="458,162 467,162 467,159 465,156 461,156 458,159 458,164 461,167 465,167 467,164"/>
<polyline fill="none" stroke="#FFFFFF" stroke-width="1" points="494,150 485,150 485,167 494,167"/>
<polyline fill="none" stroke="#FFFFFF" stroke-width="1" points="485,159 491,159"/>
<polyline fill="none" stroke="#FFFFFF" stroke-width="1" points="498,156 507,167"/>
<polyline fill="none" stroke="#FFFFFF" stroke-width="1" points="498,167 507,156"/>
<polyline fill="none" stroke="#FFFFFF" stroke-width="1" points="511,162 520,162 520,159 518,156 513,156 511,159 511,164 513,167 518,167 520,164"/>
<polyline fill="none" stroke="#FFFFFF" stroke-width="1" points="524,167 524,156"/>
<polyline fill="none" stroke="#FFFFFF" stroke-width="1" points="524,159 527,156 531,156 533,159"/>
<polyline fill="none" stroke="#FFFFFF" stroke-width="1" points="547,159 544,156 540,156 538,159 538,164 540,167 544,167 547,164"/>
<polyline fill="none" stroke="#FFFFFF" stroke-width="1" points="555,156 555,167"/>
<polyline fill="none" stroke="#FFFFFF" stroke-width="1" points="555,153 555,150"/>
<polyline fill="none" stroke="#FFFFFF" stroke-width="1" points="573,156 566,156 564,159 566,162 571,162 573,164 571,167 564,167"/>
<polyline fill="none" stroke="#FFFFFF" stroke-width="1" points="577,162 586,162 586,159 584,156 580,156 577,159 577,164 580,167 584,167 586,164"/>
<polyline fill="none" stroke="#FFFFFF" stroke-width="1" points="300,185 302,189 303,185"/>
<polyline fill="none" stroke="#FFFFFF" stroke-width="1" points="305,187 309,187 309,186 308,185 306,185 305,186 305,188 306,189 308,189 309,188"/>
<polyline fill="none" stroke="#FFFFFF" stroke-width="1" points="314,186 313,185 311,185 310,186 310,188 311,189 313,189 314,188"/>
<polyline fill="none" stroke="#FFFFFF" stroke-width="1" points="317,182 317,188 317,189 318,189"/>
<polyline fill="none" stroke="#FFFFFF" stroke-width="1" points="316,185 318,185"/>
<polyline fill="none" stroke="#FFFFFF" stroke-width="1" points="322,189 324,189 324,188 324,186 324,185 322,185 321,186 321,188 322,189"/>
<polyline fill="none" stroke="#FFFFFF" stroke-width="1" points="326,189 326,185"/>
<polyline fill="none" stroke="#FFFFFF" stroke-width="1" points="326,186 327,185 329,185 330,186"/>
<polyline fill="none" stroke="#FFFFFF" stroke-width="1" points="335,185 332,185 332,186 332,187 334,187 335,188 334,189 332,189"/>
<polyline fill="none" stroke="#FFFFFF" stroke-width="1" points="351,189 351,185"/>
<polyline fill="none" stroke="#FFFFFF" stroke-width="1" points="351,186 350,185 348,185 347,186 347,188 348,189 350,189 351,188"/>
<polyline fill="none" stroke="#FFFFFF" stroke-width="1" points="353,189 353,185"/>
<polyline fill="none" stroke="#FFFFFF" stroke-width="1" points="353,186 354,185 355,185 356,186"/>
<polyline fill="none" stroke="#FFFFFF" stroke-width="1" points="361,186 361,185 359,185 358,186 358,188 359,189 361,189 361,188"/>
<polyline fill="none" stroke="#FFFFFF" stroke-width="1" points="367,185 364,185 363,186 364,187 366,187 367,188 366,189 363,189"/>
<polyline fill="none" stroke="#FFFFFF" stroke-width="1" points="380,189 380,183 381,182 382,182"/>
<polyline fill="none" stroke="#FFFFFF" stroke-width="1" points="379,185 381,185"/>
<polyline fill="none" stroke="#FFFFFF" stroke-width="1" points="386,185 386,189"/>
<polyline fill="none" stroke="#FFFFFF" stroke-width="1" points="386,183 386,182"/>
<polyline fill="none" stroke="#FFFFFF" stroke-width="1" points="391,182 391,189"/>
<polyline fill="none" stroke="#FFFFFF" stroke-width="1" points="397,182 397,189"/>
<polyline fill="none" stroke="#FFFFFF" stroke-width="1" points="404,185 401,185 400,186 401,187 403,187 404,188 403,189 400,189"/>
<polyline fill="none" stroke="#FFFFFF" stroke-width="1" points="416,192 416,185"/>
<polyline fill="none" stroke="#FFFFFF" stroke-width="1" points="416,188 417,189 419,189 420,188 420,186 419,185 417,185 416,186"/>
<polyline fill="none" stroke="#FFFFFF" stroke-width="1" points="422,189 424,189 425,188 425,186 424,185 422,185 421,186 421,188 422,189"/>
<polyline fill="none" stroke="#FFFFFF" stroke-width="1" points="428,182 428,189"/>
<polyline fill="none" stroke="#FFFFFF" stroke-width="1" points="432,185 434,189"/>
<polyline fill="none" stroke="#FFFFFF" stroke-width="1" points="435,185 432,192"/>
<polyline fill="none" stroke="#FFFFFF" stroke-width="1" points="441,185 441,191 440,192 438,192 437,191"/>
<polyline fill="none" stroke="#FFFFFF" stroke-width="1" points="441,186 440,185 438,185 437,186 437,188 438,189 440,189 441,188"/>
<polyline fill="none" stroke="#FFFFFF" stroke-width="1" points="443,189 445,189 446,188 446,186 445,185 443,185 443,186 443,188 443,189"/>
<polyline fill="none" stroke="#FFFFFF" stroke-width="1" points="448,189 448,185"/>
<polyline fill="none" stroke="#FFFFFF" stroke-width="1" points="448,186 449,185 450,185 451,186 451,189"/>
<polyline fill="none" stroke="#FFFFFF" stroke-width="1" points="457,185 454,185 453,186 454,187 456,187 457,188 456,189 453,189"/>
<polyline fill="none" stroke="#FFFFFF" stroke-width="1" points="470,182 470,188 471,189 472,189"/>
<polyline fill="none" stroke="#FFFFFF" stroke-width="1" points="469,185 472,185"/>
<polyline fill="none" stroke="#FFFFFF" stroke-width="1" points="474,187 478,187 478,186 477,185 475,185 474,186 474,188 475,189 477,189 478,188"/>
<polyline fill="none" stroke="#FFFFFF" stroke-width="1" points="480,185 483,189"/>
<polyline fill="none" stroke="#FFFFFF" stroke-width="1" points="480,189 483,185"/>
<polyline fill="none" stroke="#FFFFFF" stroke-width="1" points="486,182 486,188 487,189 487,189"/>
<polyline fill="none" stroke="#FFFFFF" stroke-width="1" points="485,185 487,185"/>
<polyline fill="none" stroke="#FFFFFF" stroke-width="1" points="501,189 501,185"/>
<polyline fill="none" stroke="#FFFFFF" stroke-width="1" points="501,186 502,185 503,185 504,186"/>
<polyline fill="none" stroke="#FFFFFF" stroke-width="1" points="507,189 509,189 510,188 510,186 509,185 507,185 506,186 506,188 507,189"/>
<polyline fill="none" stroke="#FFFFFF" stroke-width="1" points="512,182 512,188 513,189 514,189"/>
<polyline fill="none" stroke="#FFFFFF" stroke-width="1" points="511,185 514,185"/>
<polyline fill="none" stroke="#FFFFFF" stroke-width="1" points="520,189 520,185"/>
<polyline fill="none" stroke="#FFFFFF" stroke-width="1" points="520,186 519,185 517,185 517,186 517,188 517,189 519,189 520,188"/>
<polyline fill="none" stroke="#FFFFFF" stroke-width="1" points="523,182 523,188 524,189 524,189"/>
<polyline fill="none" stroke="#FFFFFF" stroke-width="1" points="522,185 524,185"/>
<polyline fill="none" stroke="#FFFFFF" stroke-width="1" points="529,185 529,189"/>
<polyline fill="none" stroke="#FFFFFF" stroke-width="1" points="529,183 529,182"/>
<polyline fill="none" stroke="#FFFFFF" stroke-width="1" points="533,189 535,189 536,188 536,186 535,185 533,185 532,186 532,188 533,189"/>
<polyline fill="none" stroke="#FFFFFF" stroke-width="1" points="538,189 538,185"/>
<polyline fill="none" stroke="#FFFFFF" stroke-width="1" points="538,186 539,185 540,185 541,186 541,189"/>
<polyline fill="none" stroke="#FFFFFF" stroke-width="1" points="557,186 556,185 554,185 554,186 554,188 554,189 556,189 557,188"/>
<polyline fill="none" stroke="#FFFFFF" stroke-width="1" points="561,182 561,189"/>
<polyline fill="none" stroke="#FFFFFF" stroke-width="1" points="566,185 566,189"/>
<polyline fill="none" stroke="#FFFFFF" stroke-width="1" points="566,183 566,182"/>
<polyline fill="none" stroke="#FFFFFF" stroke-width="1" points="569,192 569,185"/>
<polyline fill="none" stroke="#FFFFFF" stroke-width="1" points="569,188 570,189 572,189 573,188 573,186 572,185 570,185 569,186"/>
<polyline fill="none" stroke="#FFFFFF" stroke-width="1" points="575,192 575,185"/>
<polyline fill="none" stroke="#FFFFFF" stroke-width="1" points="575,188 576,189 577,189 578,188 578,186 577,185 576,185 575,186"/>
<polyline fill="none" stroke="#FFFFFF" stroke-width="1" points="582,185 582,189"/>
<polyline fill="none" stroke="#FFFFFF" stroke-width="1" points="582,183 582,182"/>
<polyline fill="none" stroke="#FFFFFF" stroke-width="1" points="585,189 585,185"/>
<polyline fill="none" stroke="#FFFFFF" stroke-width="1" points="585,186 586,185 588,185 589,186 589,189"/>
<polyline fill="none" stroke="#FFFFFF" stroke-width="1" points="594,185 594,191 593,192 591,192 591,191"/>
<polyline fill="none" stroke="#FFFFFF" stroke-width="1" points="594,186 593,185 591,185 591,186 591,188 591,189 593,189 594,188"/>
<polyline fill="none" stroke="#00FFFF" stroke-width="1" points="296,197 296,204 300,204"/>
<polyline fill="none" stroke="#00FFFF" stroke-width="1" points="301,197 305,197"/>
<polyline fill="none" stroke="#00FFFF" stroke-width="1" points="303,197 303,204"/>
<polyline fill="none" stroke="#00FFFF" stroke-width="1" points="308,204 309,204 310,203 310,198 309,197 308,197 307,198 307,203 308,204"/>
<polyline fill="none" stroke="#00FFFF" stroke-width="1" stroke-dasharray="10,41" points="344,204 469,204"/>
<polyline fill="none" stroke="#00FFFF" stroke-width="1" points="296,208 296,215 300,215"/>
<polyline fill="none" stroke="#00FFFF" stroke-width="1" points="301,208 305,208"/>
<polyline fill="none" stroke="#00FFFF" stroke-width="1" points="303,208 303,215"/>
<polyline fill="none" stroke="#00FFFF" stroke-width="1" points="308,209 308,208 308,215 309,215"/>
<polyline fill="none" stroke="#00FFFF" stroke-width="1" stroke-dasharray="17,34" points="344,215 469,215"/>
<polyline fill="none" stroke="#00FFFF" stroke-width="1" points="296,219 296,226 300,226"/>
<polyline fill="none" stroke="#00FFFF" stroke-width="1" points="301,219 305,219"/>
<polyline fill="none" stroke="#00FFFF" stroke-width="1" points="303,219 303,226"/>
<polyline fill="none" stroke="#00FFFF" stroke-width="1" points="307,220 308,219 309,219 310,220 310,221 307,226 310,226"/>
<polyline fill="none" stroke="#00FFFF" stroke-width="1" stroke-dasharray="26,26" points="344,226 469,226"/>
<polyline fill="none" stroke="#00FFFF" stroke-width="1" points="296,230 296,237 300,237"/>
<polyline fill="none" stroke="#00FFFF" stroke-width="1" points="301,230 305,230"/>
<polyline fill="none" stroke="#00FFFF" stroke-width="1" points="303,230 303,237"/>
<polyline fill="none" stroke="#00FFFF" stroke-width="1" points="307,230 310,230 308,233 310,235 310,236 309,237 308,237 307,236"/>
<polyline fill="none" stroke="#00FFFF" stroke-width="1" stroke-dasharray="34,17" points="344,237 469,237"/>
<polyline fill="none" stroke="#00FFFF" stroke-width="1" points="296,241 296,248 300,248"/>
<polyline fill="none" stroke="#00FFFF" stroke-width="1" points="301,241 305,241"/>
<polyline fill="none" stroke="#00FFFF" stroke-width="1" points="303,241 303,248"/>
<polyline fill="none" stroke="#00FFFF" stroke-width="1" points="309,248 309,241 307,246 310,246"/>
<polyline fill="none" stroke="#00FFFF" stroke-width="1" stroke-dasharray="24,12,4,12" points="344,248 469,248"/>
<polyline fill="none" stroke="#00FFFF" stroke-width="1" points="296,252 296,259 300,259"/>
<polyline fill="none" stroke="#00FFFF" stroke-width="1" points="301,252 305,252"/>
<polyline fill="none" stroke="#00FFFF" stroke-width="1" points="303,252 303,259"/>
<polyline fill="none" stroke="#00FFFF" stroke-width="1" points="310,252 307,252 307,256 309,256 310,257 310,258 309,259 308,259 307,258"/>
<polyline fill="none" stroke="#00FFFF" stroke-width="1" stroke-dasharray="18,9,3,9,3,9" points="344,259 469,259"/>
<polyline fill="none" stroke="#00FFFF" stroke-width="1" points="296,263 296,270 300,270"/>
<polyline fill="none" stroke="#00FFFF" stroke-width="1" points="301,263 305,263"/>
<polyline fill="none" stroke="#00FFFF" stroke-width="1" points="303,263 303,270"/>
<polyline fill="none" stroke="#00FFFF" stroke-width="1" points="310,264 309,263 308,263 307,264 307,269 308,270 309,270 310,269 310,268 309,267 307,267"/>
<polyline fill="none" stroke="#00FFFF" stroke-width="1" stroke-dasharray="15,15,5,15" points="344,270 469,270"/>
<polyline fill="none" stroke="#00FF00" stroke-width="1" points="566,237 565,234 565,232 565,229 564,227 563,224 561,222 560,219 558,217 557,215 555,214 552,212 550,210 548,209 545,208 543,207 540,207 537,206 535,206 532,206 529,207 527,207 524,208 522,209 519,210 517,212 515,214 513,215 511,217 510,219 508,222 507,224 506,227 505,229 504,232 504,234 504,237 504,240 504,243 505,245 506,248 507,250 508,253 510,255 511,257 513,259 515,261 517,262 519,264 522,265 524,266 527,267 529,268 532,268 535,268 537,268 540,268 543,267 545,266 548,265 550,264 552,262 555,261 557,259 558,257 560,255 561,253 563,250 564,248 565,245 565,243 565,240 566,237"/>
<polyline fill="none" stroke="#00FF00" stroke-width="1" points="623,237 623,234 622,231 622,228 621,225 619,222 618,219 616,216 614,214 612,211 610,209 607,207 605,205 602,204 599,203 596,202 593,201 589,201 586,200 583,201 580,201 577,202 574,203 571,204 568,205 565,207 563,209 560,211 558,214 556,216 554,219 553,222 552,225 551,228 550,231 550,234 549,237"/>
<polyline fill="none" stroke="#00FF00" stroke-width="1" points="689,237 720,237 720,234 719,232 719,229 718,227 717,224 716,222 714,219 713,217 711,215 709,214 707,212 704,210 702,209 699,208 697,207 694,207 692,206 689,206 686,206 684,207 681,207 678,208 676,209 674,210 689,237"/>
<polygon fill="#FFFF00" points="770,237 793,217 792,215 790,214 787,212 785,210 783,209 780,208 778,207 775,207 772,206 770,206 767,206 764,207 762,207 759,208 757,209 754,210 752,212 750,214 748,215 746,217"/>
<polyline fill="none" stroke="#00FF00" stroke-width="1" points="523,199 522,198 521,198 520,199 520,203 521,204 522,204 523,203"/>
<polyline fill="none" stroke="#00FF00" stroke-width="1" points="526,198 527,198"/>
<polyline fill="none" stroke="#00FF00" stroke-width="1" points="526,198 526,204 527,204"/>
<polyline fill="none" stroke="#00FF00" stroke-width="1" points="534,204 537,198"/>
<polyline fill="none" stroke="#00FF00" stroke-width="1" points="544,204 545,198 547,204"/>
<polyline fill="none" stroke="#00FF00" stroke-width="1" points="544,202 546,202"/>
<polyline fill="none" stroke="#00FF00" stroke-width="1" points="548,204 550,198 551,204"/>
<polyline fill="none" stroke="#00FF00" stroke-width="1" points="549,202 551,202"/>
<polyline fill="none" stroke="#00FF00" stroke-width="1" points="558,204 561,198"/>
<polyline fill="none" stroke="#00FF00" stroke-width="1" points="570,198 567,198 567,204 570,204"/>
<polyline fill="none" stroke="#00FF00" stroke-width="1" points="567,201 569,201"/>
<polyline fill="none" stroke="#00FF00" stroke-width="1" points="572,198 573,204 573,201 574,204 575,198"/>
<polyline fill="none" stroke="#00FF00" stroke-width="1" points="581,204 584,198"/>
<polyline fill="none" stroke="#00FF00" stroke-width="1" points="591,198 591,204 592,201 593,204 594,198"/>
<polyline fill="none" stroke="#00FF00" stroke-width="1" points="598,199 598,198 596,198 595,199 595,203 596,204 598,204 598,203 598,201 597,201"/>
<polyline fill="none" stroke="#00FFFF" stroke-width="1" points="329,399 388,399 388,340 329,340 329,399"/>
<polygon fill="#00FF00" points="417,399 476,399 476,340 417,340"/>
<polyline fill="none" stroke="#FFFF00" stroke-width="1" points="553,399 557,395"/>
<polyline fill="none" stroke="#FFFF00" stroke-width="1" points="546,399 557,388"/>
<polyline fill="none" stroke="#FFFF00" stroke-width="1" points="539,399 557,381"/>
<polyline fill="none" stroke="#FFFF00" stroke-width="1" points="531,399 557,373"/>
<polyline fill="none" stroke="#FFFF00" stroke-width="1" points="524,399 557,366"/>
<polyline fill="none" stroke="#FFFF00" stroke-width="1" points="517,399 557,359"/>
<polyline fill="none" stroke="#FFFF00" stroke-width="1" points="510,399 557,351"/>
<polyline fill="none" stroke="#FFFF00" stroke-width="1" points="502,399 557,344"/>
<polyline fill="none" stroke="#FFFF00" stroke-width="1" points="498,396 554,340"/>
<polyline fill="none" stroke="#FFFF00" stroke-width="1" points="498,388 546,340"/>
<polyline fill="none" stroke="#FFFF00" stroke-width="1" points="498,381 539,340"/>
<polyline fill="none" stroke="#FFFF00" stroke-width="1" points="498,374 532,340"/>
<polyline fill="none" stroke="#FFFF00" stroke-width="1" points="498,367 525,340"/>
<polyline fill="none" stroke="#FFFF00" stroke-width="1" points="498,359 517,340"/>
<polyline fill="none" stroke="#FFFF00" stroke-width="1" points="498,352 510,340"/>
<polyline fill="none" stroke="#FFFF00" stroke-width="1" points="498,345 503,340"/>
<polyline fill="none" stroke="#FF0000" stroke-width="1" points="579,396 638,396"/>
<polyline fill="none" stroke="#FF0000" stroke-width="1" points="579,391 638,391"/>
<polyline fill="none" stroke="#FF0000" stroke-width="1" points="579,386 638,386"/>
<polyline fill="none" stroke="#FF0000" stroke-width="1" points="579,381 638,381"/>
<polyline fill="none" stroke="#FF0000" stroke-width="1" points="579,376 638,376"/>
<polyline fill="none" stroke="#FF0000" stroke-width="1" points="579,370 638,370"/>
<polyline fill="none" stroke="#FF0000" stroke-width="1" points="579,365 638,365"/>
<polyline fill="none" stroke="#FF0000" stroke-width="1" points="579,360 638,360"/>
<polyline fill="none" stroke="#FF0000" stroke-width="1" points="579,355 638,355"/>
<polyline fill="none" stroke="#FF0000" stroke-width="1" points="579,350 638,350"/>
<polyline fill="none" stroke="#FF0000" stroke-width="1" points="579,345 638,345"/>
<polyline fill="none" stroke="#FF0000" stroke-width="1" points="635,399 635,340"/>
<polyline fill="none" stroke="#FF0000" stroke-width="1" points="630,399 630,340"/>
<polyline fill="none" stroke="#FF0000" stroke-width="1" points="625,399 625,340"/>
<polyline fill="none" stroke="#FF0000" stroke-width="1" points="620,399 620,340"/>
<polyline fill="none" stroke="#FF0000" stroke-width="1" points="614,399 614,340"/>
<polyline fill="none" stroke="#FF0000" stroke-width="1" points="609,399 609,340"/>
<polyline fill="none" stroke="#FF0000" stroke-width="1" points="604,399 604,340"/>
<polyline fill="none" stroke="#FF0000" stroke-width="1" points="599,399 599,340"/>
<polyline fill="none" stroke="#FF0000" stroke-width="1" points="594,399 594,340"/>
<polyline fill="none" stroke="#FF0000" stroke-width="1" points="589,399 589,340"/>
<polyline fill="none" stroke="#FF0000" stroke-width="1" points="584,399 584,340"/>
<polygon fill="#FF00FF" points="660,399 711,399 711,340 660,340"/>
<polyline fill="none" stroke="#00FFFF" stroke-width="1" points="332,330 329,330 329,336 332,336"/>
<polyline fill="none" stroke="#00FFFF" stroke-width="1" points="329,333 332,333"/>
<polyline fill="none" stroke="#00FFFF" stroke-width="1" points="334,336 335,330 337,336"/>
<polyline fill="none" stroke="#00FFFF" stroke-width="1" points="335,334 336,334"/>
<polyline fill="none" stroke="#00FFFF" stroke-width="1" points="348,336 348,330 350,330 351,331 351,332 350,333 348,333"/>
<polyline fill="none" stroke="#00FFFF" stroke-width="1" points="350,333 351,336"/>
<polyline fill="none" stroke="#00FFFF" stroke-width="1" points="353,336 354,330 356,336"/>
<polyline fill="none" stroke="#00FFFF" stroke-width="1" points="353,334 355,334"/>
<polyline fill="none" stroke="#00FFFF" stroke-width="1" points="360,330 358,332 358,334 360,336"/>
<polyline fill="none" stroke="#00FFFF" stroke-width="1" points="365,332 363,332 362,333 363,334 364,334 365,335 364,336 362,336"/>
<polyline fill="none" stroke="#00FFFF" stroke-width="1" points="368,336 369,336 370,335 370,333 369,332 368,332 367,333 367,335 368,336"/>
<polyline fill="none" stroke="#00FFFF" stroke-width="1" points="373,330 373,336"/>
<polyline fill="none" stroke="#00FFFF" stroke-width="1" points="378,332 378,336"/>
<polyline fill="none" stroke="#00FFFF" stroke-width="1" points="378,331 378,330"/>
<polyline fill="none" stroke="#00FFFF" stroke-width="1" points="384,330 384,336"/>
<polyline fill="none" stroke="#00FFFF" stroke-width="1" points="384,335 383,336 382,336 381,335 381,333 382,332 383,332 384,333"/>
<polyline fill="none" stroke="#00FFFF" stroke-width="1" points="386,336 389,330"/>
<polyline fill="none" stroke="#00FFFF" stroke-width="1" points="390,330 390,336"/>
<polyline fill="none" stroke="#00FFFF" stroke-width="1" points="390,333 391,332 393,332 393,333 393,336"/>
<polyline fill="none" stroke="#00FFFF" stroke-width="1" points="398,336 398,332"/>
<polyline fill="none" stroke="#00FFFF" stroke-width="1" points="398,333 397,332 396,332 395,333 395,335 396,336 397,336 398,335"/>
<polyline fill="none" stroke="#00FFFF" stroke-width="1" points="400,330 400,335 401,336 402,336"/>
<polyline fill="none" stroke="#00FFFF" stroke-width="1" points="400,332 402,332"/>
<polyline fill="none" stroke="#00FFFF" stroke-width="1" points="407,333 407,332 405,332 404,333 404,335 405,336 407,336 407,335"/>
<polyline fill="none" stroke="#00FFFF" stroke-width="1" points="409,330 409,336"/>
<polyline fill="none" stroke="#00FFFF" stroke-width="1" points="409,333 410,332 411,332 412,333 412,336"/>
<polyline fill="none" stroke="#00FFFF" stroke-width="1" points="414,336 417,330"/>
<polyline fill="none" stroke="#00FFFF" stroke-width="1" points="422,333 421,332 419,332 418,333 418,335 419,336 421,336 422,335"/>
<polyline fill="none" stroke="#00FFFF" stroke-width="1" points="423,336 423,332"/>
<polyline fill="none" stroke="#00FFFF" stroke-width="1" points="423,333 424,332 426,332 426,333"/>
<polyline fill="none" stroke="#00FFFF" stroke-width="1" points="429,336 430,336 431,335 431,333 430,332 429,332 428,333 428,335 429,336"/>
<polyline fill="none" stroke="#00FFFF" stroke-width="1" points="436,332 433,332 433,333 433,334 435,334 436,335 435,336 433,336"/>
<polyline fill="none" stroke="#00FFFF" stroke-width="1" points="440,332 438,332 437,333 438,334 440,334 440,335 440,336 437,336"/>
<polyline fill="none" stroke="#00FFFF" stroke-width="1" points="443,330 444,332 444,334 443,336"/>
<polyline fill="none" stroke="#00FFFF" stroke-width="1" points="456,336 456,330 458,330 459,331 459,332 458,333 456,333"/>
<polyline fill="none" stroke="#00FFFF" stroke-width="1" points="458,333 459,336"/>
<polyline fill="none" stroke="#00FFFF" stroke-width="1" points="461,336 461,330 463,330 464,331 464,332 463,333 461,333"/>
<polyline fill="none" stroke="#00FFFF" stroke-width="1" points="462,333 464,336"/>
<polyline fill="none" stroke="#FF0000" stroke-width="1" points="814,396 939,396"/>
<polyline fill="none" stroke="#FF0000" stroke-width="1" points="814,390 939,390"/>
<polyline fill="none" stroke="#FF0000" stroke-width="1" points="814,384 939,384"/>
<polyline fill="none" stroke="#FF0000" stroke-width="1" points="814,378 939,378"/>
<polyline fill="none" stroke="#FF0000" stroke-width="1" points="814,372 843,372"/>
<polyline fill="none" stroke="#FF0000" stroke-width="1" points="909,372 939,372"/>
<polyline fill="none" stroke="#FF0000" stroke-width="1" points="814,366 843,366"/>
<polyline fill="none" stroke="#FF0000" stroke-width="1" points="909,366 939,366"/>
<polyline fill="none" stroke="#FF0000" stroke-width="1" points="814,361 843,361"/>
<polyline fill="none" stroke="#FF0000" stroke-width="1" points="909,361 939,361"/>
<polyline fill="none" stroke="#FF0000" stroke-width="1" points="814,355 843,355"/>
<polyline fill="none" stroke="#FF0000" stroke-width="1" points="909,355 939,355"/>
<polyline fill="none" stroke="#FF0000" stroke-width="1" points="814,349 843,349"/>
<polyline fill="none" stroke="#FF0000" stroke-width="1" points="909,349 939,349"/>
<polyline fill="none" stroke="#FF0000" stroke-width="1" points="814,343 843,343"/>
<polyline fill="none" stroke="#FF0000" stroke-width="1" points="909,343 939,343"/>
<polyline fill="none" stroke="#FF0000" stroke-width="1" points="814,337 843,337"/>
<polyline fill="none" stroke="#FF0000" stroke-width="1" points="909,337 939,337"/>
<polyline fill="none" stroke="#FF0000" stroke-width="1" points="814,331 939,331"/>
<polyline fill="none" stroke="#FF0000" stroke-width="1" points="814,325 939,325"/>
<polyline fill="none" stroke="#FF0000" stroke-width="1" points="814,319 939,319"/>
<polyline fill="none" stroke="#FF0000" stroke-width="1" points="814,314 939,314"/>
<polyline fill="none" stroke="#FFFFFF" stroke-width="1" points="814,399 939,399 939,311 814,311 814,399"/>
<polyline fill="none" stroke="#FFFFFF" stroke-width="1" points="843,373 909,373 909,336 843,336 843,373"/>
<polyline fill="none" stroke="#FFFFFF" stroke-width="1" points="814,307 814,300 816,300 817,302 817,303 816,304 814,304"/>
<polyline fill="none" stroke="#FFFFFF" stroke-width="1" points="818,307 818,300 820,304 822,300 822,307"/>
<polyline fill="none" stroke="#FFFFFF" stroke-width="1" points="823,307 826,300"/>
<polyline fill="none" stroke="#FFFFFF" stroke-width="1" points="831,300 828,300 828,307"/>
<polyline fill="none" stroke="#FFFFFF" stroke-width="1" points="828,304 830,304"/>
<polyline fill="none" stroke="#FFFFFF" stroke-width="1" points="833,307 833,300 835,300 836,302 836,303 835,304 833,304"/>
<polyline fill="none" stroke="#FFFFFF" stroke-width="1" points="837,307 840,300"/>
<polyline fill="none" stroke="#FFFFFF" stroke-width="1" points="845,300 842,300 842,307 845,307"/>
<polyline fill="none" stroke="#FFFFFF" stroke-width="1" points="842,304 844,304"/>
<polyline fill="none" stroke="#FFFFFF" stroke-width="1" points="847,307 847,300 849,300 850,302 850,303 849,304 847,304"/>
<polyline fill="none" stroke="#FFFFFF" stroke-width="1" points="858,300 857,303 857,305 858,307"/>
<polyline fill="none" stroke="#FFFFFF" stroke-width="1" points="861,300 861,307"/>
<polyline fill="none" stroke="#FFFFFF" stroke-width="1" points="861,304 862,303 863,303 864,304 864,307"/>
<polyline fill="none" stroke="#FFFFFF" stroke-width="1" points="866,307 868,307 869,306 869,304 868,303 866,303 865,304 865,306 866,307"/>
<polyline fill="none" stroke="#FFFFFF" stroke-width="1" points="872,300 872,307"/>
<polyline fill="none" stroke="#FFFFFF" stroke-width="1" points="875,305 878,305 878,304 877,303 876,303 875,304 875,306 876,307 877,307 878,306"/>
<polyline fill="none" stroke="#FFFFFF" stroke-width="1" points="880,300 882,303 882,305 880,307"/>
<polyline fill="none" stroke="#FFFFFF" stroke-width="1" points="336,457 336,456 334,456 332,457 332,459 332,460 334,460 335,462 334,463 332,465 330,465 330,463"/>
<polyline fill="none" stroke="#FFFFFF" stroke-width="1" points="341,456 338,465"/>
<polyline fill="none" stroke="#FFFFFF" stroke-width="1" points="346,465 349,459"/>
<polyline fill="none" stroke="#FFFFFF" stroke-width="1" points="348,460 348,459 346,459 344,460 343,463 343,465 345,465 347,463"/>
<polyline fill="none" stroke="#FFFFFF" stroke-width="1" points="349,465 351,459"/>
<polyline fill="none" stroke="#FFFFFF" stroke-width="1" points="350,460 352,459 354,459 355,460 353,465"/>
<polyline fill="none" stroke="#FFFFFF" stroke-width="1" points="360,456 357,463 357,465 358,465"/>
<polyline fill="none" stroke="#FFFFFF" stroke-width="1" points="357,459 361,459"/>
<polyline fill="none" stroke="#FFFFFF" stroke-width="1" points="363,462 367,462 368,460 367,459 365,459 363,460 362,463 363,465 365,465 366,463"/>
<polyline fill="none" stroke="#FFFFFF" stroke-width="1" points="376,456 372,465"/>
<polyline fill="none" stroke="#FFFFFF" stroke-width="1" points="373,463 371,465 369,465 369,463 370,460 371,459 374,459 374,460"/>
<polyline fill="none" stroke="#FFFFFF" stroke-width="1" points="438,516 447,514 438,512"/>
<polyline fill="none" stroke="#FFFFFF" stroke-width="1" points="438,505 438,510 447,510 447,505"/>
<polyline fill="none" stroke="#FFFFFF" stroke-width="1" points="442,510 442,506"/>
<polyline fill="none" stroke="#FFFFFF" stroke-width="1" points="447,503 438,503 438,500 439,499 441,499 442,500 442,503"/>
<polyline fill="none" stroke="#FFFFFF" stroke-width="1" points="442,501 447,499"/>
<polyline fill="none" stroke="#FFFFFF" stroke-width="1" points="438,497 438,492"/>
<polyline fill="none" stroke="#FFFFFF" stroke-width="1" points="438,495 447,495"/>
<polyline fill="none" stroke="#FFFFFF" stroke-width="1" points="438,489 438,487"/>
<polyline fill="none" stroke="#FFFFFF" stroke-width="1" points="438,488 447,488"/>
<polyline fill="none" stroke="#FFFFFF" stroke-width="1" points="447,489 447,487"/>
<polyline fill="none" stroke="#FFFFFF" stroke-width="1" points="439,480 438,481 438,483 439,484 445,484 447,483 447,481 445,480"/>
<polyline fill="none" stroke="#FFFFFF" stroke-width="1" points="447,477 438,475 447,473"/>
<polyline fill="none" stroke="#FFFFFF" stroke-width="1" points="444,476 444,474"/>
<polyline fill="none" stroke="#FFFFFF" stroke-width="1" points="438,471 447,471 447,467"/>
<polyline fill="none" stroke="#FFFFFF" stroke-width="1" points="488,507 494,513"/>
<polyline fill="none" stroke="#FFFFFF" stroke-width="1" points="493,512 493,514 491,515 490,515 488,513 487,511 489,510 491,510"/>
<polyline fill="none" stroke="#FFFFFF" stroke-width="1" points="493,506 497,510"/>
<polyline fill="none" stroke="#FFFFFF" stroke-width="1" points="492,505 491,504"/>
<polyline fill="none" stroke="#FFFFFF" stroke-width="1" points="503,504 499,500"/>
<polyline fill="none" stroke="#FFFFFF" stroke-width="1" points="500,501 498,501 496,502 497,504 499,506 501,506 502,505 502,503"/>
<polyline fill="none" stroke="#FFFFFF" stroke-width="1" points="503,495 508,500 509,502 507,504 505,503"/>
<polyline fill="none" stroke="#FFFFFF" stroke-width="1" points="504,496 503,496 501,498 501,499 503,501 505,502 507,500 506,498"/>
<polyline fill="none" stroke="#FFFFFF" stroke-width="1" points="597,449 594,445 589,445 586,449 586,453 589,457 594,457 597,461 597,465 594,468 589,468 586,465"/>
<polyline fill="none" stroke="#FFFFFF" stroke-width="1" points="602,468 602,445 610,445 613,449 613,453 610,457 602,457"/>
<polyline fill="none" stroke="#FFFFFF" stroke-width="1" points="608,457 613,468"/>
<polyline fill="none" stroke="#FFFFFF" stroke-width="1" points="664,468 664,463"/>
<polyline fill="none" stroke="#FFFFFF" stroke-width="1" points="664,464 663,463 661,463 660,464 660,467 661,468 663,468 664,467"/>
<polyline fill="none" stroke="#FFFFFF" stroke-width="1" points="668,460 668,468"/>
<polyline fill="none" stroke="#FFFFFF" stroke-width="1" points="674,460 674,467 675,468 676,468"/>
<polyline fill="none" stroke="#FFFFFF" stroke-width="1" points="672,463 676,463"/>
<polyline fill="none" stroke="#FFFFFF" stroke-width="1" points="740,456 740,465 745,465"/>
<polyline fill="none" stroke="#FFFFFF" stroke-width="1" points="749,459 749,465"/>
<polyline fill="none" stroke="#FFFFFF" stroke-width="1" points="749,457 749,456"/>
<polyline fill="none" stroke="#FFFFFF" stroke-width="1" points="753,465 753,459"/>
<polyline fill="none" stroke="#FFFFFF" stroke-width="1" points="753,460 754,459 756,459 758,460 758,465"/>
<polyline fill="none" stroke="#FFFFFF" stroke-width="1" points="760,462 764,462 764,460 763,459 761,459 760,460 760,463 761,465 763,465 764,463"/>
<polyline fill="none" stroke="#FFFFFF" stroke-width="1" points="767,457 768,456 768,465"/>
<polyline fill="none" stroke="#FFFFFF" stroke-width="1" points="767,465 769,465"/>
<polyline fill="none" stroke="#FFFFFF" stroke-width="1" points="740,474 740,482 745,482"/>
<polyline fill="none" stroke="#FFFFFF" stroke-width="1" points="749,477 749,482"/>
<polyline fill="none" stroke="#FFFFFF" stroke-width="1" points="749,475 749,474"/>
<polyline fill="none" stroke="#FFFFFF" stroke-width="1" points="753,482 753,477"/>
<polyline fill="none" stroke="#FFFFFF" stroke-width="1" points="753,478 754,477 756,477 758,478 758,482"/>
<polyline fill="none" stroke="#FFFFFF" stroke-width="1" points="760,479 764,479 764,478 763,477 761,477 760,478 760,481 761,482 763,482 764,481"/>
<polyline fill="none" stroke="#FFFFFF" stroke-width="1" points="766,475 767,474 769,474 770,475 770,477 766,482 770,482"/>
<polyline fill="none" stroke="#FFFFFF" stroke-width="1" points="329,547 329,541"/>
<polyline fill="none" stroke="#FFFFFF" stroke-width="1" points="327,546 331,543"/>
<polyline fill="none" stroke="#FFFFFF" stroke-width="1" points="331,546 327,543"/>
<polyline fill="none" stroke="#FFFFFF" stroke-width="1" points="359,547 359,541"/>
<polyline fill="none" stroke="#FFFFFF" stroke-width="1" points="357,546 361,543"/>
<polyline fill="none" stroke="#FFFFFF" stroke-width="1" points="361,546 357,543"/>
<polyline fill="none" stroke="#FFFFFF" stroke-width="1" points="388,547 388,541"/>
<polyline fill="none" stroke="#FFFFFF" stroke-width="1" points="386,546 390,543"/>
<polyline fill="none" stroke="#FFFFFF" stroke-width="1" points="390,546 386,543"/>
<polyline fill="none" stroke="#FFFFFF" stroke-width="1" points="417,547 417,541"/>
<polyline fill="none" stroke="#FFFFFF" stroke-width="1" points="415,546 419,543"/>
<polyline fill="none" stroke="#FFFFFF" stroke-width="1" points="419,546 415,543"/>
<polyline fill="none" stroke="#FFFFFF" stroke-width="1" points="333,561 332,559 330,559 329,561 329,562 330,563 332,563 333,565 333,566 332,568 330,568 329,566"/>
<polyline fill="none" stroke="#FFFFFF" stroke-width="1" points="335,568 335,559 337,563 339,559 339,568"/>
<polyline fill="none" stroke="#FFFFFF" stroke-width="1" points="351,562 348,562 347,563 348,565 350,565 351,566 350,568 347,568"/>
<polyline fill="none" stroke="#FFFFFF" stroke-width="1" points="353,562 355,568"/>
<polyline fill="none" stroke="#FFFFFF" stroke-width="1" points="357,562 353,570"/>
<polyline fill="none" stroke="#FFFFFF" stroke-width="1" points="359,568 359,562"/>
<polyline fill="none" stroke="#FFFFFF" stroke-width="1" points="359,563 360,562 361,563 361,568"/>
<polyline fill="none" stroke="#FFFFFF" stroke-width="1" points="361,563 361,562 362,563 362,568"/>
<polyline fill="none" stroke="#FFFFFF" stroke-width="1" points="364,559 364,568"/>
<polyline fill="none" stroke="#FFFFFF" stroke-width="1" points="364,566 365,568 367,568 368,566 368,563 367,562 365,562 364,563"/>
<polyline fill="none" stroke="#FFFFFF" stroke-width="1" points="371,568 373,568 374,566 374,563 373,562 371,562 370,563 370,566 371,568"/>
<polyline fill="none" stroke="#FFFFFF" stroke-width="1" points="378,559 378,568"/>
<polyline fill="none" stroke="#FFFFFF" stroke-width="1" points="386,562 383,562 382,563 383,565 385,565 386,566 385,568 382,568"/>
<polyline fill="none" stroke="#00FFFF" stroke-width="1" points="21,604 12,604 12,601 13,600 15,600 16,601 16,604"/>
<polyline fill="none" stroke="#00FFFF" stroke-width="1" points="16,602 21,600"/>
<polyline fill="none" stroke="#00FFFF" stroke-width="1" points="21,597 21,595 19,593 13,593 12,595 12,597 13,598 19,598 21,597"/>
<polyline fill="none" stroke="#00FFFF" stroke-width="1" points="16,587 16,590 15,591 13,591 12,590 12,588 13,587 19,587 21,588 21,590 19,591"/>
<polyline fill="none" stroke="#00FFFF" stroke-width="1" points="21,584 21,582 19,581 13,581 12,582 12,584 13,585 19,585 21,584"/>
<polyline fill="none" stroke="#00FF00" stroke-width="1" points="575,560 575,557 575,554 574,551 573,548 572,545 570,542 569,539 567,537 564,534 562,532 560,531"/>
<polyline fill="none" stroke="#00FF00" stroke-width="1" points="516,531 515,532 512,534 510,537 508,539 507,542 505,545 504,548 503,551 502,554 502,557 502,560 502,563 502,567 503,570 504,573 505,576 507,579 508,581 510,584 512,586 515,588 516,590"/>
<polyline fill="none" stroke="#00FF00" stroke-width="1" points="560,590 562,588 564,586 567,584 569,581 570,579 572,576 573,573 574,570 575,567 575,563 575,560"/>
<polyline fill="none" stroke="#FFFF00" stroke-width="1" points="601,582 689,538"/>
<polyline fill="none" stroke="#FFFF00" stroke-width="1" points="689,531 601,531"/>
<polyline fill="none" stroke="#FFFFFF" stroke-width="1" points="499,590 500,590 500,597"/>
<polyline fill="none" stroke="#FFFFFF" stroke-width="1" points="499,597 500,597"/>
<polyline fill="none" stroke="#FFFFFF" stroke-width="1" points="503,590 504,597 504,594 505,597 506,590"/>
<polyline fill="none" stroke="#FFFFFF" stroke-width="1" points="515,594 514,593 513,593 512,594 512,596 513,597 514,597 515,596"/>
<polyline fill="none" stroke="#FFFFFF" stroke-width="1" points="518,590 518,597"/>
<polyline fill="none" stroke="#FFFFFF" stroke-width="1" points="523,593 523,597"/>
<polyline fill="none" stroke="#FFFFFF" stroke-width="1" points="523,592 523,590"/>
<polyline fill="none" stroke="#FFFFFF" stroke-width="1" points="526,599 526,593"/>
<polyline fill="none" stroke="#FFFFFF" stroke-width="1" points="526,596 527,597 529,597 529,596 529,594 529,593 527,593 526,594"/>
<polyline fill="none" stroke="#FFFFFF" stroke-width="1" points="538,590 536,593 536,595 538,597"/>
<polyline fill="none" stroke="#FFFFFF" stroke-width="1" points="543,594 543,593 541,593 540,594 540,596 541,597 543,597 543,596"/>
<polyline fill="none" stroke="#FFFFFF" stroke-width="1" points="547,593 547,597"/>
<polyline fill="none" stroke="#FFFFFF" stroke-width="1" points="547,592 547,590"/>
<polyline fill="none" stroke="#FFFFFF" stroke-width="1" points="550,597 550,593"/>
<polyline fill="none" stroke="#FFFFFF" stroke-width="1" points="550,594 551,593 552,593 553,594"/>
<polyline fill="none" stroke="#FFFFFF" stroke-width="1" points="558,594 557,593 555,593 554,594 554,596 555,597 557,597 558,596"/>
<polyline fill="none" stroke="#FFFFFF" stroke-width="1" points="561,590 561,597"/>
<polyline fill="none" stroke="#FFFFFF" stroke-width="1" points="564,595 567,595 567,594 566,593 565,593 564,594 564,596 565,597 566,597 567,596"/>
<polyline fill="none" stroke="#FFFFFF" stroke-width="1" points="573,594 576,594"/>
<polyline fill="none" stroke="#FFFFFF" stroke-width="1" points="575,596 575,592"/>
<polyline fill="none" stroke="#FFFFFF" stroke-width="1" points="584,590 584,597"/>
<polyline fill="none" stroke="#FFFFFF" stroke-width="1" points="589,593 589,597"/>
<polyline fill="none" stroke="#FFFFFF" stroke-width="1" points="589,592 589,590"/>
<polyline fill="none" stroke="#FFFFFF" stroke-width="1" points="592,597 592,593"/>
<polyline fill="none" stroke="#FFFFFF" stroke-width="1" points="592,594 593,593 594,593 595,594 595,597"/>
<polyline fill="none" stroke="#FFFFFF" stroke-width="1" points="597,595 600,595 600,594 599,593 598,593 597,594 597,596 598,597 599,597 600,596"/>
<polyline fill="none" stroke="#FFFFFF" stroke-width="1" points="605,593 602,593 601,594 602,595 604,595 605,596 604,597 601,597"/>
<polyline fill="none" stroke="#FFFFFF" stroke-width="1" points="607,590 608,593 608,595 607,597"/>
</svg>