<svg xmlns="http://www.w3.org/2000/svg" width="1024" height="768" viewBox="0 0 1024 768">
<rect width="1024" height="768" fill="#000000"/>
<polyline fill="none" stroke="#FFFFFF" stroke-width="1" points="72,683 72,379 72,75"/>
<polyline fill="none" stroke="#FFFFFF" stroke-width="1" points="163,75 163,379 163,683"/>
<polyline fill="none" stroke="#FFFFFF" stroke-width="1" points="254,683 254,379 254,75"/>
<polyline fill="none" stroke="#FFFFFF" stroke-width="1" points="345,75 345,379 345,683"/>
<polyline fill="none" stroke="#FFFFFF" stroke-width="1" points="436,683 436,379 436,75"/>
<polyline fill="none" stroke="#FFFFFF" stroke-width="1" points="527,75 527,379 527,683"/>
<polyline fill="none" stroke="#FFFFFF" stroke-width="1" points="618,683 618,379 618,75"/>
<polyline fill="none" stroke="#FFFFFF" stroke-width="1" points="709,75 709,379 709,683"/>
<polyline fill="none" stroke="#FFFFFF" stroke-width="1" points="800,683 800,379 800,75"/>
<polyline fill="none" stroke="#FFFFFF" stroke-width="1" points="891,75 891,379 891,683"/>
<polyline fill="none" stroke="#FFFFFF" stroke-width="1" points="982,683 982,379 982,75 527,75 72,75"/>
<polyline fill="none" stroke="#FFFFFF" stroke-width="1" points="72,136 527,136 982,136"/>
<polyline fill="none" stroke="#FFFFFF" stroke-width="1" points="982,197 527,197 72,197"/>
<polyline fill="none" stroke="#FFFFFF" stroke-width="1" points="72,258 527,258 982,258"/>
<polyline fill="none" stroke="#FFFFFF" stroke-width="1" points="982,318 527,318 72,318"/>
<polyline fill="none" stroke="#FFFFFF" stroke-width="1" points="72,379 527,379 982,379"/>
<polyline fill="none" stroke="#FFFFFF" stroke-width="1" points="982,440 527,440 72,440"/>
<polyline fill="none" stroke="#FFFFFF" stroke-width="1" points="72,501 527,501 982,501"/>
<polyline fill="none" stroke="#FFFFFF" stroke-width="1" points="982,562 527,562 72,562"/>
<polyline fill="none" stroke="#FFFFFF" stroke-width="1" points="72,622 527,622 982,622"/>
<polyline fill="none" stroke="#FFFFFF" stroke-width="1" points="982,683 527,683 72,683"/>
<text x="42" y="756" fill="#00FF00" font-family="sans-serif" font-size="18px">*RBW</text>
<text x="163" y="756" fill="#00FF00" font-family="sans-serif" font-size="18px">100Hz</text>
<text x="382" y="756" fill="#00FF00" font-family="sans-serif" font-size="18px">VBW</text>
<text x="479" y="756" fill="#00FF00" font-family="sans-serif" font-size="18px">100Hz</text>
<text x="721" y="756" fill="#00FF00" font-family="sans-serif" font-size="18px">SWP</text>
<text x="818" y="756" fill="#00FF00" font-family="sans-serif" font-size="18px">101ms</text>
<text x="673" y="724" fill="#00FF00" font-family="sans-serif" font-size="18px">SPAN</text>
<text x="794" y="724" fill="#00FF00" font-family="sans-serif" font-size="18px">1.000kHz</text>
<text x="66" y="724" fill="#00FF00" font-family="sans-serif" font-size="18px">CENTER</text>
<text x="236" y="724" fill="#00FF00" font-family="sans-serif" font-size="18px">460.000kHz</text>
<text x="66" y="63" fill="#00FF00" font-family="sans-serif" font-size="18px">RL</text>
<text x="139" y="63" fill="#00FF00" font-family="sans-serif" font-size="18px">0dBm</text>
<text x="66" y="31" fill="#00FF00" font-family="sans-serif" font-size="18px">ATTEN</text>
<text x="212" y="31" fill="#00FF00" font-family="sans-serif" font-size="18px">10dB</text>
<text x="406" y="63" fill="#00FF00" font-family="sans-serif" font-size="18px">10dB/</text>
<text x="600" y="31" fill="#00FF00" font-family="sans-serif" font-size="18px">MKR</text>
<text x="697" y="31" fill="#00FF00" font-family="sans-serif" font-size="18px">-20.83dBm</text>
<text x="600" y="63" fill="#00FF00" font-family="sans-serif" font-size="18px">460.000kHz</text>
<polyline fill="none" stroke="#00FFFF" stroke-width="1" points="72,683 74,683 75,683 77,683 78,683 80,683 81,683 83,683 84,683 86,683 87,683 89,683 90,683 92,683 93,683 95,683 96,683 98,683 99,683 101,683 102,683 104,683 105,683 107,683 109,683 110,683 112,683 113,683 115,683 116,683 118,683 119,683 121,683 122,683 124,683 125,683 127,683 128,683 130,683 131,683 133,683 134,683 136,683 137,683 139,683 140,683 142,683 143,683 145,683 146,683 148,683 149,683 151,683 153,683 154,683 156,683 157,683 159,683 160,683 162,683 163,683 165,683 166,683 168,683 169,683 171,683 172,683 174,683 175,682 177,681 178,678 180,677 181,675 183,674 184,672 186,670 187,668 189,667 190,665 192,664 193,662 195,661 197,659 198,658 200,657 201,655 203,654 204,654 206,653 207,652 209,651 210,650 212,650 213,649 215,649 216,649 218,649 219,649 221,649 222,649 224,649 225,649 227,649 228,650 230,650 231,651 233,651 234,652 236,652 237,652 239,653 241,653 242,653 243,653 245,654 247,654 248,653 250,653 251,653 253,653 254,652 256,652 257,652 259,652 260,651 262,651 263,651 265,650 266,650 268,650 269,649 271,649 272,648 274,648 275,648 277,647 278,646 280,646 281,645 283,645 285,644 286,643 287,643 289,642 291,642 292,641 294,640 295,640 297,640 298,639 300,638 301,636 303,636 304,636 306,636 307,636 309,636 310,638 312,638 313,639 315,639 316,639 318,639 319,640 321,639 322,640 324,640 325,640 327,639 328,639 330,638 331,636 333,634 335,633 336,630 338,629 339,627 341,624 342,620 344,617 345,612 347,608 348,603 350,599 351,593 353,586 354,580 356,574 357,567 359,560 360,551 362,544 363,536 365,528 366,520 368,512 369,504 371,496 372,488 374,480 375,471 377,464 379,456 380,449 382,441 383,435 385,428 386,422 388,416 389,410 391,403 392,397 394,392 395,387 397,382 398,377 400,372 401,367 403,363 404,358 406,354 407,349 409,345 410,341 412,336 413,333 415,329 416,325 418,320 419,317 421,313 423,309 424,306 425,302 427,299 429,295 430,292 432,289 433,285 435,282 436,279 438,277 439,274 441,271 442,269 444,266 445,263 447,261 448,258 450,256 451,254 453,252 454,250 456,248 457,246 459,244 460,241 462,240 463,238 465,236 467,235 468,233 469,231 471,230 473,228 474,227 476,225 477,224 479,223 480,221 482,219 483,218 485,217 486,216 488,215 489,214 491,213 492,212 494,211 495,210 497,209 498,209 500,208 501,207 503,207 504,206 506,205 507,205 509,204 510,204 512,203 513,203 515,203 517,203 518,202 520,202 521,202 523,202 524,202 526,201 527,202 529,202 530,202 532,202 533,202 535,202 536,203 538,203 539,203 541,204 542,204 544,204 545,205 547,205 548,206 550,207 551,207 553,208 554,209 556,210 557,211 559,211 561,212 562,214 564,214 565,216 567,217 568,218 570,219 571,220 573,221 574,222 576,223 577,225 579,226 580,228 582,229 583,231 585,233 586,234 588,236 589,238 591,240 592,242 594,244 595,246 597,248 598,250 600,252 601,255 603,257 605,259 606,262 607,264 609,267 611,270 612,272 614,274 615,277 617,280 618,282 620,286 621,289 623,292 624,296 626,300 627,302 629,306 630,310 632,314 633,317 635,321 636,325 638,329 639,334 641,338 642,342 644,347 645,351 647,356 649,361 650,366 651,371 653,376 655,382 656,388 658,393 659,399 661,407 662,412 664,419 665,426 667,434 668,442 670,451 671,460 673,469 674,479 676,490 677,500 679,511 680,520 682,531 683,541 685,552 686,562 688,573 689,583 691,592 692,602 694,611 695,620 697,629 699,638 700,645 702,652 703,659 705,664 706,670 708,673 709,677 711,680 712,682 714,683 715,683 717,683 718,683 720,683 721,683 723,683 724,683 726,683 727,683 729,681 730,679 732,677 733,675 735,672 736,670 738,668 739,666 741,664 743,661 744,660 746,657 747,656 749,654 750,653 752,652 753,652 755,650 756,650 758,650 759,649 761,649 762,649 764,649 765,649 767,649 768,649 770,649 771,649 773,649 774,649 776,649 777,649 779,649 780,649 782,650 783,650 785,650 787,650 788,650 790,651 791,651 793,652 794,652 796,653 797,653 799,653 800,653 802,653 803,654 805,655 806,654 808,655 809,654 811,655 812,655 814,655 815,655 817,655 818,655 820,656 821,656 823,657 824,657 826,658 827,658 829,660 831,661 832,661 834,663 835,665 837,667 838,668 840,671 841,674 843,677 844,678 846,682 847,683 849,683 850,683 852,683 853,683 855,683 856,683 858,683 859,683 861,683 862,683 864,683 865,683 867,683 868,683 870,683 871,683 873,683 874,683 876,683 878,683 879,683 881,683 882,683 884,683 885,683 887,683 888,683 890,683 891,683 893,683 894,683 896,683 897,683 899,683 900,683 902,683 903,683 905,683 906,683 908,683 909,683 911,683 912,683 914,683 915,683 917,683 918,683 920,683 922,683 923,683 925,683 926,683 928,683 929,683 931,683 932,683 934,683 935,683 937,683 938,681 940,680 941,679 943,679 944,678 946,678 947,678 949,678 950,679 952,680 953,681 955,681 956,683 958,683 959,683 961,683 962,683 964,683 966,683 967,683 969,683 970,683 972,683 973,683 975,683 976,683 978,683 979,683 981,683 982,683"/>
<polyline fill="none" stroke="#00FF00" stroke-width="1" points="527,202 532,196 527,190 523,196 527,202 532,196 527,190 523,196 527,202 532,196 527,190 523,196 527,202"/>
</svg>